<?xml version="1.0" encoding="UTF-8"?>
<svg id="Warstwa_2" data-name="Warstwa 2" xmlns="http://www.w3.org/2000/svg" viewBox="0 0 325.33 327.11">
  <defs>
    <style>
      .cls-1 {
        fill: #fff;
      }
    </style>
  </defs>
  <g id="Layer_2" data-name="Layer 2">
    <path class="cls-1" d="M9.21,11.92c-.72,0-1.39-.28-1.91-.8L.8,4.61C.29,4.11,0,3.44,0,2.72,0,2,.28,1.31,.8,.8c.51-.52,1.18-.8,1.9-.8h0c.72,0,1.4,.28,1.92,.8l6.51,6.51c.51,.5,.79,1.17,.8,1.89,0,.73-.28,1.41-.8,1.93-.51,.51-1.19,.8-1.91,.8Z"/>
    <path class="cls-1" d="M316.13,15.14c-.72,0-1.4-.28-1.92-.79-.51-.5-.79-1.17-.79-1.88,0-.73,.28-1.41,.8-1.93l6.51-6.51c.5-.51,1.17-.79,1.89-.79s1.41,.28,1.93,.79c.51,.5,.79,1.17,.79,1.88,0,.73-.28,1.41-.8,1.93l-6.51,6.51c-.51,.51-1.18,.79-1.9,.79Z"/>
    <path class="cls-1" d="M316.11,315.19c.72,0,1.39,.28,1.91,.8l6.51,6.51c.51,.5,.79,1.17,.8,1.89,0,.73-.28,1.41-.8,1.93-.51,.52-1.18,.8-1.9,.8h0c-.72,0-1.4-.28-1.92-.8l-6.51-6.51c-.51-.5-.79-1.17-.8-1.89,0-.73,.28-1.41,.8-1.93,.51-.51,1.19-.8,1.91-.8Z"/>
    <path class="cls-1" d="M9.2,311.97c.72,0,1.4,.28,1.92,.79,.51,.5,.79,1.17,.79,1.88,0,.73-.28,1.41-.8,1.93l-6.51,6.51c-.5,.51-1.17,.79-1.89,.79s-1.41-.28-1.93-.79c-.51-.5-.79-1.17-.79-1.88,0-.73,.28-1.41,.8-1.93l6.51-6.51c.51-.51,1.18-.79,1.9-.79Z"/>
  </g>
</svg>