<?xml version="1.0" encoding="utf-8"?>
<!-- Generator: Adobe Illustrator 19.2.1, SVG Export Plug-In . SVG Version: 6.00 Build 0)  -->
<svg version="1.1" id="layer" xmlns="http://www.w3.org/2000/svg" xmlns:xlink="http://www.w3.org/1999/xlink" x="0px" y="0px"
	 viewBox="0 0 652 652" style="enable-background:new 0 0 652 652;" xml:space="preserve">
<style type="text/css">
	.st0{fill:#94928E;}
	.st1{fill:#4A4846;}
</style>
<polygon class="st0" points="264.9,354.3 234.3,354.3 234.3,332.2 226.5,332.2 226.5,384.1 234.3,384.1 234.3,361.6 264.9,361.6 
	264.9,384.1 272.7,384.1 272.7,332.2 264.9,332.2 "/>
<g>
	<path class="st0" d="M310.9,365.9c0,7.1-4.7,12.2-11.1,12.2c-6.7,0-11.4-5-11.4-12.2c0-7.2,4.7-12.2,11.4-12.2
		C306.2,353.7,310.9,358.9,310.9,365.9 M310.7,352.7c-1.4-2-5.1-5.8-12.2-5.8c-8.8,0-17.7,6.5-17.7,19c0,11.2,7.3,19,17.7,19
		c6.8,0,10.5-3.6,12.2-6v5.2h7.3v-36.4h-7.3V352.7z"/>
	<path class="st0" d="M347.4,362.4c-1.3-0.1-2.3-0.3-3.3-0.4c-1.4-0.2-2.7-0.3-4.4-0.5c-5.1-0.6-5.7-2.7-5.7-4.2
		c0-2.6,3-4.1,7.7-4.1c6.4,0,8.9,3,9.8,4l0.1,0.1h7.7l-0.2-0.5c-1-3-4.6-10.1-17.4-10.1c-9,0-15,4.3-15,10.8c0,6.2,4.3,10.1,12,11
		l7.6,0.9c5,0.6,6,2.3,6,4.7c0,2.8-3.3,4.6-8.6,4.6c-7.3,0-10-3.9-10.4-4.9l-0.1-0.3h-7.8l0.1,0.5c0.1,0.5,2.9,11.2,18.1,11.2
		c9.5,0,15.9-4.5,15.9-11.1C359.8,367.2,355.8,363.5,347.4,362.4"/>
	<path class="st0" d="M387,347c-6,0-9.9,3.5-11.7,6.3v-22.9h-7.3v53.8h7.3v-19.6c0-6.4,4.1-10.7,10.1-10.7c5.9,0,9.8,4.2,9.8,10.7
		v19.6h7.4v-20.8C402.5,353.7,396.1,347,387,347"/>
	<path class="st0" d="M429.7,378.2c-6.7,0-11.6-5.1-11.6-12.2c0-7.2,4.8-12.3,11.6-12.3c6.8,0,11.5,5.1,11.5,12.3
		C441.2,373.1,436.3,378.2,429.7,378.2 M441,352.7c-1.8-2.5-5.9-5.8-12.6-5.8c-10.6,0-18,7.9-18,19.1c0,11.2,7.4,19,18,19
		c6.6,0,10.7-3.4,12.6-6v4.7c0,6.7-4.3,10.6-11.7,10.6c-5,0-8.7-1.8-10.6-5l-0.1-0.2h-7.9l0.1,0.5c0.1,0.5,3.1,11.5,18.5,11.5
		c11.7,0,19-6.7,19-17.4v-36H441V352.7z"/>
	<path class="st0" d="M466.6,353.1v-5.3h-7.3v36.4h7.3v-20.5c0-6.4,3.3-8.8,11.9-8.8h9.5v-7.3h-9.3
		C471.4,347.5,468.1,350.7,466.6,353.1"/>
	<path class="st0" d="M521.7,365.9c0,7.1-4.7,12.2-11.1,12.2c-6.7,0-11.4-5-11.4-12.2c0-7.2,4.7-12.2,11.4-12.2
		C517,353.7,521.7,358.9,521.7,365.9 M521.5,352.7c-1.4-2-5.1-5.8-12.2-5.8c-8.8,0-17.7,6.5-17.7,19c0,11.2,7.3,19,17.7,19
		c6.8,0,10.5-3.6,12.2-6v5.2h7.3v-36.4h-7.3V352.7z"/>
	<path class="st0" d="M558.5,353.7c6.8,0,11.6,5,11.6,12.2c0,7.2-4.8,12.2-11.6,12.2c-6.8,0-11.6-5-11.6-12.2
		C546.9,358.7,551.7,353.7,558.5,353.7 M559.7,346.9c-6.8,0-10.9,3.6-12.6,6v-5.1h-7.3v52.5h7.3v-20.9c1.8,2.3,6.2,5.7,12.6,5.7
		c10.5,0,17.9-7.8,17.9-19C577.5,354.7,570.2,346.9,559.7,346.9"/>
	<path class="st0" d="M605,347c-6,0-9.9,3.5-11.7,6.3v-22.9h-7.3v53.8h7.3v-19.6c0-6.4,4.1-10.7,10.1-10.7c5.9,0,9.8,4.2,9.8,10.7
		v19.6h7.4v-20.8C620.5,353.7,614.1,347,605,347"/>
	<rect x="77.1" y="313.3" class="st1" width="38.6" height="9.6"/>
	<path class="st1" d="M96,243.2c-41.7,0-75.5,33.8-75.5,75.5c0,41.7,33.8,75.5,75.5,75.5c41.7,0,75.5-33.8,75.5-75.5
		C171.5,277,137.7,243.2,96,243.2 M124.1,348.6h-8.8v-18.6H76.7v18.6H68v-60.4h8.8v18.2h38.6v-18.2h8.8V348.6z"/>
	<polygon class="st1" points="264.9,274 234.3,274 234.3,251.9 226.5,251.9 226.5,303.8 234.3,303.8 234.3,281.3 264.9,281.3 
		264.9,303.8 272.7,303.8 272.7,251.9 264.9,251.9 	"/>
	<path class="st1" d="M299.5,273c5.1,0,8.6,2.6,10.3,7.6H289C290.5,275.7,294.3,273,299.5,273 M299.5,266.6
		c-10.5,0-18.5,8.2-18.5,19c0,10.9,8.2,19,19.1,19c12.5,0,16.9-8.4,17.5-11.3l0.1-0.5h-7.2l-0.1,0.2c-0.1,0.2-2.5,4.8-10.2,4.8
		c-6.4,0-11.1-4.5-11.7-11h29.6v-0.4C318.1,274.8,310.4,266.6,299.5,266.6"/>
	<path class="st1" d="M343,297.8c-6.9,0-11.6-5-11.6-12.2s4.8-12.2,11.6-12.2c6.8,0,11.5,5,11.5,12.2S349.7,297.8,343,297.8
		 M354.3,272.4c-1.8-2.5-5.9-5.8-12.6-5.8c-10.6,0-18,7.8-18,19s7.4,19,18,19c7.2,0,11.1-4,12.6-6.1v5.2h7.3V250h-7.3V272.4z"/>
	<path class="st1" d="M388.8,273c5.1,0,8.6,2.6,10.3,7.6h-20.8C379.7,275.7,383.5,273,388.8,273 M388.8,266.6
		c-10.5,0-18.5,8.2-18.5,19c0,10.9,8.2,19,19.1,19c12.5,0,16.9-8.4,17.5-11.3l0.1-0.5h-7.2l-0.1,0.2c-0.1,0.2-2.5,4.8-10.2,4.8
		c-6.4,0-11.1-4.5-11.7-11h29.6v-0.4C407.3,274.8,399.7,266.6,388.8,266.6"/>
	<path class="st1" d="M422.9,272.7v-5.3h-7.3v36.4h7.3v-20.5c0-6.4,3.3-8.8,11.9-8.8h9.5v-7.3h-9.3
		C427.7,267.2,424.4,270.4,422.9,272.7"/>
	<path class="st1" d="M476.9,285.6c0,7.1-4.7,12.2-11.1,12.2c-6.7,0-11.4-5-11.4-12.2s4.7-12.2,11.4-12.2
		C472.2,273.4,476.9,278.6,476.9,285.6 M476.7,272.4c-1.4-2-5.1-5.8-12.2-5.8c-8.8,0-17.7,6.5-17.7,19c0,11.2,7.3,19,17.7,19
		c6.8,0,10.5-3.6,12.2-6v5.2h7.3v-36.4h-7.3V272.4z"/>
	<polygon class="st1" points="491.2,268.5 493.2,268.5 493.2,273.1 493.9,273.1 493.9,268.5 495.9,268.5 495.9,267.8 491.2,267.8 	
		"/>
	<polygon class="st1" points="501.7,267.8 500,272 498.3,267.8 497.1,267.8 497.1,273.1 497.8,273.1 497.8,268.5 499.7,273.1 
		500.2,273.1 502.1,268.6 502.1,273.1 502.9,273.1 502.9,267.8 	"/>
</g>
</svg>
