<?xml version="1.0" encoding="UTF-8"?>
<svg id="Warstwa_2" data-name="Warstwa 2" xmlns="http://www.w3.org/2000/svg" viewBox="0 0 109.99 109.99">
  <defs>
    <style>
      .cls-1 {
        fill: #fff;
      }
    </style>
  </defs>
  <g id="Layer_2" data-name="Layer 2">
    <g>
      <path class="cls-1" d="M74.52,109.99c-1.49,0-2.7-1.21-2.7-2.7,0-2.1-1.71-3.81-3.81-3.81h-13.02c-2.1,0-3.81,1.71-3.81,3.81,0,1.49-1.21,2.7-2.7,2.7H28.96c-1.49,0-2.7-1.21-2.7-2.7v-13.02c0-1.49,1.21-2.7,2.7-2.7h6.51c5.69,0,10.32-4.63,10.32-10.32v-10.54h-3.81c-1.49,0-2.7-1.21-2.7-2.7v-26.04c0-1.49,1.21-2.7,2.7-2.7h45.57c.27,0,.56,.05,.84,.14l19.75,6.51c1.11,.36,1.85,1.38,1.85,2.55v13.02c0,1.49-1.21,2.7-2.7,2.7h-16.49c-7.36,0-13.58,6.22-13.58,13.58s6.09,13.79,13.58,13.79h3.25c1.49,0,2.7,1.21,2.7,2.7v13.02c0,1.49-1.21,2.7-2.7,2.7h-19.53Z"/>
      <path class="cls-1" d="M28.96,70.71c-12.26,0-22.23-9.97-22.23-22.23,0-1.49,1.21-2.7,2.7-2.7H31.65v22.23c0,.9,.13,1.8,.38,2.7h-3.08Z"/>
      <path class="cls-1" d="M28.96,38.17c-.72,0-1.39-.28-1.91-.8l-6.51-6.51c-.51-.5-.79-1.17-.8-1.89,0-.73,.28-1.41,.8-1.93,.51-.52,1.18-.8,1.9-.8h0c.72,0,1.4,.28,1.92,.8l6.51,6.51c.51,.5,.79,1.17,.8,1.89,0,.73-.28,1.41-.8,1.93-.51,.51-1.19,.8-1.91,.8Z"/>
      <path class="cls-1" d="M48.48,31.65c-1.49,0-2.7-1.21-2.7-2.7v-10.32H2.7c-1.49,0-2.7-1.21-2.7-2.7s1.21-2.7,2.7-2.7H45.79V2.7c0-1.49,1.21-2.7,2.7-2.7h19.53c1.49,0,2.7,1.21,2.7,2.7V28.96c0,1.49-1.21,2.7-2.7,2.7h-19.53Z"/>
      <path class="cls-1" d="M81.04,31.65c-.72,0-1.4-.28-1.92-.79-.51-.5-.79-1.17-.79-1.88,0-.73,.28-1.41,.8-1.93l6.51-6.51c.5-.51,1.17-.79,1.89-.79s1.41,.28,1.93,.79c.51,.5,.79,1.17,.79,1.88,0,.73-.28,1.41-.8,1.93l-6.51,6.51c-.51,.51-1.18,.79-1.9,.79Z"/>
    </g>
  </g>
</svg>