<?xml version="1.0" encoding="UTF-8" standalone="no"?>
<!DOCTYPE svg PUBLIC "-//W3C//DTD SVG 1.1//EN" "http://www.w3.org/Graphics/SVG/1.1/DTD/svg11.dtd">
<svg width="100%" height="100%" viewBox="0 0 200 127" version="1.1" xmlns="http://www.w3.org/2000/svg" xmlns:xlink="http://www.w3.org/1999/xlink" xml:space="preserve" xmlns:serif="http://www.serif.com/" style="fill-rule:evenodd;clip-rule:evenodd;stroke-linejoin:round;stroke-miterlimit:2;">
    <g transform="matrix(0.957188,0,0,0.957188,4.99822,13.3142)">
        <g id="Layer_2">
            <g id="asd">
                <g>
                    <path d="M79.55,0L79.55,14.98C111.89,17.49 80.52,60.41 111,62.91C111.39,36.88 115.6,1.67 79.55,0Z" style="fill:rgb(248,246,246);fill-rule:nonzero;"/>
                    <path d="M79.55,14.98L79.55,0C62.21,0 48.1,14.11 48.1,31.45L63.08,31.45C63.08,22.35 70.46,14.97 79.56,14.97L79.55,14.98Z" style="fill:url(#_Linear1);fill-rule:nonzero;"/>
                    <path d="M31.62,0L31.62,14.98C63.96,17.49 32.59,60.41 63.07,62.91C63.46,36.88 67.67,1.67 31.62,0Z" style="fill:rgb(248,246,246);fill-rule:nonzero;"/>
                    <path d="M0.17,31.45C0.13,43.89 -2.56,62.25 15.15,62.9C16.7,48.2 7.91,15.4 31.63,14.97L31.63,0C14.28,0 0.17,14.11 0.17,31.45Z" style="fill:rgb(248,246,246);fill-rule:nonzero;"/>
                </g>
                <g>
                    <path d="M1.43,79.08C1.43,77.12 2.41,76.13 4.38,76.13L7.38,76.13C9.31,76.13 10.27,77.11 10.27,79.08L10.27,79.56C10.27,79.63 10.27,79.7 10.24,79.77C10.22,79.84 10.21,79.91 10.21,79.98L10.21,80.25L10.32,80.25C10.64,79.79 11.04,79.27 11.53,78.7C12.01,78.13 12.59,77.61 13.27,77.15C13.95,76.69 14.72,76.29 15.6,75.97C16.47,75.65 17.45,75.49 18.52,75.49C20.27,75.49 21.81,75.87 23.15,76.64C24.49,77.41 25.52,78.58 26.23,80.15L26.34,80.15C26.7,79.58 27.17,79.02 27.76,78.46C28.35,77.91 29.02,77.41 29.77,76.96C30.52,76.51 31.35,76.16 32.26,75.89C33.17,75.62 34.14,75.49 35.18,75.49C36.43,75.49 37.6,75.67 38.69,76.03C39.78,76.39 40.73,76.98 41.53,77.8C42.33,78.62 42.97,79.69 43.43,81.01C43.89,82.33 44.13,83.94 44.13,85.83L44.13,100.77C44.13,102.73 43.15,103.72 41.18,103.72L37.81,103.72C35.85,103.72 34.86,102.74 34.86,100.77L34.86,87.38C34.86,86.34 34.73,85.5 34.46,84.86C34.19,84.22 33.61,83.9 32.72,83.9C31.72,83.9 30.88,84.13 30.2,84.6C29.52,85.06 28.98,85.67 28.57,86.42C28.16,87.17 27.86,88.04 27.69,89.02C27.51,90 27.42,91.01 27.42,92.05L27.42,100.78C27.42,102.74 26.44,103.73 24.47,103.73L21.1,103.73C19.14,103.73 18.15,102.75 18.15,100.78L18.15,87.39C18.15,86.35 18.02,85.51 17.75,84.87C17.48,84.23 16.9,83.91 16.01,83.91C14.94,83.91 14.06,84.16 13.39,84.66C12.71,85.16 12.18,85.79 11.78,86.56C11.39,87.33 11.11,88.19 10.95,89.16C10.79,90.12 10.71,91.09 10.71,92.05L10.71,100.78C10.71,102.74 9.73,103.73 7.76,103.73L4.39,103.73C2.43,103.73 1.44,102.75 1.44,100.78L1.44,79.09L1.43,79.08Z" style="fill:white;fill-rule:nonzero;"/>
                    <path d="M49.21,79.08C49.21,77.12 50.19,76.13 52.16,76.13L55.53,76.13C57.49,76.13 58.48,77.11 58.48,79.08L58.48,100.77C58.48,102.73 57.5,103.72 55.53,103.72L52.16,103.72C50.2,103.72 49.21,102.74 49.21,100.77L49.21,79.08ZM52.26,72.65C50.3,72.65 49.31,71.67 49.31,69.7L49.31,68.36C49.31,66.4 50.29,65.41 52.26,65.41L55.42,65.41C57.38,65.41 58.37,66.39 58.37,68.36L58.37,69.7C58.37,71.66 57.39,72.65 55.42,72.65L52.26,72.65Z" style="fill:white;fill-rule:nonzero;"/>
                    <path d="M63.94,79.08C63.94,77.12 64.92,76.13 66.89,76.13L69.89,76.13C71.82,76.13 72.78,77.11 72.78,79.08L72.78,79.56C72.78,79.63 72.78,79.7 72.75,79.77C72.73,79.84 72.72,79.91 72.72,79.98L72.72,80.25L72.83,80.25C73.15,79.71 73.56,79.16 74.06,78.59C74.56,78.02 75.17,77.51 75.88,77.06C76.59,76.61 77.42,76.24 78.37,75.94C79.32,75.64 80.4,75.48 81.61,75.48C83,75.48 84.31,75.66 85.52,76.02C86.73,76.38 87.78,76.96 88.65,77.76C89.52,78.56 90.22,79.63 90.74,80.95C91.26,82.27 91.52,83.9 91.52,85.82L91.52,100.76C91.52,102.72 90.54,103.71 88.57,103.71L85.2,103.71C83.24,103.71 82.25,102.73 82.25,100.76L82.25,87.53C82.25,86.24 82,85.32 81.5,84.74C81,84.17 80.23,83.88 79.2,83.88C78.17,83.88 77.27,84.08 76.52,84.47C75.77,84.86 75.14,85.4 74.65,86.08C74.15,86.76 73.78,87.54 73.55,88.44C73.32,89.33 73.2,90.26 73.2,91.23L73.2,100.76C73.2,102.72 72.22,103.71 70.25,103.71L66.88,103.71C64.92,103.71 63.93,102.73 63.93,100.76L63.93,79.07L63.94,79.08Z" style="fill:white;fill-rule:nonzero;"/>
                    <path d="M98.22,83.85L97.42,83.85C95.49,83.85 94.53,82.87 94.53,80.9L94.53,79.56C94.53,77.6 95.51,76.61 97.48,76.61L98.5,76.61L98.5,71.63C98.5,69.67 99.48,68.68 101.45,68.68L104.56,68.68C106.52,68.68 107.51,69.66 107.51,71.63L107.51,76.61L110.35,76.61C112.31,76.61 113.3,77.59 113.3,79.56L113.3,80.9C113.3,82.86 112.34,83.85 110.41,83.85L107.52,83.85L107.52,92.21C107.52,93.39 107.85,94.24 108.51,94.75C109.17,95.27 109.91,95.58 110.73,95.69C111.8,95.83 112.56,96.1 113.01,96.49C113.46,96.88 113.68,97.6 113.68,98.63L113.68,101.04C113.68,102.15 113.36,102.92 112.72,103.34C112.08,103.77 111.13,103.98 109.88,103.98C108.84,103.98 107.67,103.84 106.34,103.55C105.02,103.26 103.75,102.75 102.54,102C101.33,101.25 100.31,100.22 99.49,98.92C98.67,97.62 98.26,95.95 98.26,93.91L98.26,83.84L98.22,83.85Z" style="fill:white;fill-rule:nonzero;"/>
                    <path d="M117.77,68.37C117.77,66.41 118.75,65.42 120.72,65.42L124.09,65.42C126.05,65.42 127.04,66.4 127.04,68.37L127.04,76.62C127.04,76.98 127.04,77.3 127.01,77.58C126.99,77.87 126.98,78.12 126.98,78.33C126.94,78.58 126.93,78.79 126.93,78.97L127.04,78.97C127.54,78.33 128.16,77.76 128.91,77.26C129.52,76.83 130.3,76.43 131.27,76.05C132.23,75.67 133.36,75.49 134.64,75.49C136.46,75.49 138.12,75.84 139.62,76.53C141.12,77.23 142.41,78.21 143.48,79.48C144.55,80.75 145.39,82.26 146,84.01C146.61,85.76 146.91,87.69 146.91,89.79C146.91,92 146.58,94.01 145.92,95.82C145.26,97.62 144.36,99.16 143.22,100.43C142.08,101.7 140.74,102.67 139.2,103.35C137.66,104.03 136,104.37 134.22,104.37C132.72,104.37 131.48,104.17 130.5,103.78C129.52,103.39 128.72,102.94 128.12,102.44C127.41,101.87 126.82,101.23 126.35,100.51L126.24,100.51L126.24,100.67C126.24,100.74 126.24,100.8 126.27,100.86C126.29,100.91 126.3,100.98 126.3,101.05L126.3,101.26C126.3,101.97 126.05,102.56 125.55,103.03C125.05,103.49 124.32,103.73 123.35,103.73L120.73,103.73C118.77,103.73 117.78,102.75 117.78,100.78L117.78,68.37L117.77,68.37ZM126.77,89.82C126.77,90.75 126.89,91.63 127.12,92.46C127.35,93.29 127.69,94.01 128.14,94.64C128.59,95.27 129.14,95.77 129.8,96.15C130.46,96.53 131.22,96.71 132.08,96.71C133.61,96.71 134.92,96.14 135.99,94.99C137.06,93.84 137.6,92.19 137.6,90.04C137.6,87.89 137.11,86.36 136.13,85.12C135.15,83.88 133.85,83.26 132.25,83.26C131.54,83.26 130.85,83.39 130.19,83.66C129.53,83.93 128.95,84.33 128.45,84.87C127.95,85.41 127.55,86.09 127.24,86.91C126.94,87.73 126.78,88.7 126.78,89.81L126.77,89.82Z" style="fill:white;fill-rule:nonzero;"/>
                    <path d="M149.05,95.95C149.05,94.09 149.54,92.56 150.52,91.34C151.5,90.13 152.76,89.16 154.3,88.45C155.84,87.74 157.51,87.24 159.34,86.95C161.16,86.66 162.93,86.52 164.64,86.52L165.44,86.52L165.44,86.04C165.44,84.9 165.05,84.1 164.26,83.66C163.47,83.21 162.56,82.99 161.53,82.99C160.64,82.99 159.76,83.12 158.91,83.37C158.05,83.62 157.27,83.91 156.55,84.23C154.73,85.02 153.41,84.59 152.59,82.94L151.95,81.6C151.56,80.78 151.45,80.02 151.63,79.32C151.81,78.62 152.31,78.06 153.13,77.63C154.17,77.13 155.47,76.65 157.04,76.18C158.61,75.72 160.4,75.48 162.4,75.48C166.22,75.48 169.23,76.47 171.43,78.45C173.63,80.43 174.72,83.19 174.72,86.73L174.72,100.76C174.72,102.72 173.74,103.71 171.77,103.71L169.2,103.71C167.24,103.71 166.25,102.71 166.25,100.71L166.25,100.12C166.25,100.05 166.27,100 166.3,99.96L166.19,99.96C165.65,100.78 164.99,101.51 164.21,102.16C163.53,102.73 162.67,103.24 161.64,103.69C160.6,104.14 159.41,104.36 158.05,104.36C156.69,104.36 155.51,104.15 154.41,103.72C153.3,103.29 152.36,102.7 151.57,101.95C150.78,101.2 150.17,100.31 149.72,99.27C149.27,98.23 149.05,97.13 149.05,95.95ZM158.21,95.09C158.21,95.73 158.43,96.29 158.88,96.75C159.33,97.21 159.98,97.45 160.84,97.45C161.52,97.45 162.14,97.3 162.72,96.99C163.29,96.69 163.79,96.3 164.22,95.84C164.65,95.38 164.98,94.86 165.21,94.29C165.44,93.72 165.56,93.15 165.56,92.58L165.56,91.83L164.7,91.83C163.99,91.83 163.24,91.88 162.48,91.99C161.71,92.1 161.02,92.28 160.39,92.53C159.76,92.78 159.25,93.11 158.84,93.52C158.43,93.93 158.22,94.46 158.22,95.1L158.21,95.09Z" style="fill:white;fill-rule:nonzero;"/>
                    <path d="M179.74,79.08C179.74,77.12 180.72,76.13 182.69,76.13L185.69,76.13C187.65,76.13 188.64,77.11 188.64,79.08L188.64,80.79C188.64,81.04 188.64,81.25 188.61,81.43C188.59,81.61 188.58,81.79 188.58,81.97C188.54,82.15 188.53,82.33 188.53,82.51L188.64,82.51C188.85,81.8 189.19,81.05 189.66,80.26C190.12,79.48 190.68,78.76 191.32,78.12C191.96,77.48 192.69,76.94 193.49,76.51C194.29,76.08 195.12,75.87 195.98,75.87C196.91,75.87 197.56,76.12 197.94,76.62C198.32,77.12 198.5,77.85 198.5,78.82L198.5,81.82C198.5,83.78 197.52,84.77 195.55,84.77C194.44,84.77 193.48,84.99 192.66,85.44C191.84,85.89 191.16,86.48 190.62,87.23C190.08,87.98 189.68,88.85 189.41,89.85C189.14,90.85 189.01,91.9 189.01,93.01L189.01,100.78C189.01,102.74 188.03,103.73 186.06,103.73L182.69,103.73C180.73,103.73 179.74,102.75 179.74,100.78L179.74,79.08Z" style="fill:white;fill-rule:nonzero;"/>
                </g>
            </g>
        </g>
    </g>
    <defs>
        <linearGradient id="_Linear1" x1="0" y1="0" x2="1" y2="0" gradientUnits="userSpaceOnUse" gradientTransform="matrix(-12.64,7.38,-7.38,-12.64,71.91,12.9)"><stop offset="0" style="stop-color:white;stop-opacity:1"/><stop offset="1" style="stop-color:rgb(84,91,96);stop-opacity:1"/></linearGradient>
    </defs>
</svg>
