<?xml version="1.0" encoding="UTF-8"?>
<svg id="Warstwa_2" data-name="Warstwa 2" xmlns="http://www.w3.org/2000/svg" xmlns:xlink="http://www.w3.org/1999/xlink" viewBox="0 0 198.49 126.53">
  <defs>
    <style>
      .cls-1 {
        fill: #fff;
      }

      .cls-2 {
        fill: #f8f6f6;
      }

      .cls-3 {
        fill: url(#linear-gradient);
      }
    </style>
    <linearGradient id="linear-gradient" x1="71.91" y1="12.9" x2="59.27" y2="20.28" gradientUnits="userSpaceOnUse">
      <stop offset="0" stop-color="#fff"/>
      <stop offset="1" stop-color="#545b60"/>
    </linearGradient>
  </defs>
  <g id="Layer_2" data-name="Layer 2">
    <g id="asd">
      <g>
        <path class="cls-2" d="M79.55,0V14.98c32.34,2.51,.97,45.43,31.45,47.93,.39-26.03,4.6-61.24-31.45-62.91Z"/>
        <path class="cls-3" d="M79.55,14.98V0C62.21,0,48.1,14.11,48.1,31.45h14.98c0-9.1,7.38-16.48,16.48-16.48Z"/>
        <path class="cls-2" d="M31.62,0V14.98c32.34,2.51,.97,45.43,31.45,47.93,.39-26.03,4.6-61.24-31.45-62.91Z"/>
        <path class="cls-2" d="M.17,31.45c-.04,12.44-2.73,30.8,14.98,31.45,1.55-14.7-7.24-47.5,16.48-47.93V0C14.28,0,.17,14.11,.17,31.45Z"/>
      </g>
      <g>
        <path class="cls-1" d="M1.43,79.08c0-1.96,.98-2.95,2.95-2.95h3c1.93,0,2.89,.98,2.89,2.95v.48c0,.07,0,.14-.03,.21-.02,.07-.03,.14-.03,.21v.27h.11c.32-.46,.72-.98,1.21-1.55,.48-.57,1.06-1.09,1.74-1.55,.68-.46,1.45-.86,2.33-1.18,.87-.32,1.85-.48,2.92-.48,1.75,0,3.29,.38,4.63,1.15,1.34,.77,2.37,1.94,3.08,3.51h.11c.36-.57,.83-1.13,1.42-1.69,.59-.55,1.26-1.05,2.01-1.5,.75-.45,1.58-.8,2.49-1.07,.91-.27,1.88-.4,2.92-.4,1.25,0,2.42,.18,3.51,.54,1.09,.36,2.04,.95,2.84,1.77,.8,.82,1.44,1.89,1.9,3.21,.46,1.32,.7,2.93,.7,4.82v14.94c0,1.96-.98,2.95-2.95,2.95h-3.37c-1.96,0-2.95-.98-2.95-2.95v-13.39c0-1.04-.13-1.88-.4-2.52-.27-.64-.85-.96-1.74-.96-1,0-1.84,.23-2.52,.7-.68,.46-1.22,1.07-1.63,1.82-.41,.75-.71,1.62-.88,2.6-.18,.98-.27,1.99-.27,3.03v8.73c0,1.96-.98,2.95-2.95,2.95h-3.37c-1.96,0-2.95-.98-2.95-2.95v-13.39c0-1.04-.13-1.88-.4-2.52-.27-.64-.85-.96-1.74-.96-1.07,0-1.95,.25-2.62,.75-.68,.5-1.21,1.13-1.61,1.9-.39,.77-.67,1.63-.83,2.6-.16,.96-.24,1.93-.24,2.89v8.73c0,1.96-.98,2.95-2.95,2.95h-3.37c-1.96,0-2.95-.98-2.95-2.95v-21.69Z"/>
        <path class="cls-1" d="M49.21,79.08c0-1.96,.98-2.95,2.95-2.95h3.37c1.96,0,2.95,.98,2.95,2.95v21.69c0,1.96-.98,2.95-2.95,2.95h-3.37c-1.96,0-2.95-.98-2.95-2.95v-21.69Zm3.05-6.43c-1.96,0-2.95-.98-2.95-2.95v-1.34c0-1.96,.98-2.95,2.95-2.95h3.16c1.96,0,2.95,.98,2.95,2.95v1.34c0,1.96-.98,2.95-2.95,2.95h-3.16Z"/>
        <path class="cls-1" d="M63.94,79.08c0-1.96,.98-2.95,2.95-2.95h3c1.93,0,2.89,.98,2.89,2.95v.48c0,.07,0,.14-.03,.21-.02,.07-.03,.14-.03,.21v.27h.11c.32-.54,.73-1.09,1.23-1.66,.5-.57,1.11-1.08,1.82-1.53,.71-.45,1.54-.82,2.49-1.12,.95-.3,2.03-.46,3.24-.46,1.39,0,2.7,.18,3.91,.54,1.21,.36,2.26,.94,3.13,1.74,.87,.8,1.57,1.87,2.09,3.19,.52,1.32,.78,2.95,.78,4.87v14.94c0,1.96-.98,2.95-2.95,2.95h-3.37c-1.96,0-2.95-.98-2.95-2.95v-13.23c0-1.29-.25-2.21-.75-2.79-.5-.57-1.27-.86-2.3-.86s-1.93,.2-2.68,.59c-.75,.39-1.38,.93-1.87,1.61-.5,.68-.87,1.46-1.1,2.36-.23,.89-.35,1.82-.35,2.79v9.53c0,1.96-.98,2.95-2.95,2.95h-3.37c-1.96,0-2.95-.98-2.95-2.95v-21.69Z"/>
        <path class="cls-1" d="M98.22,83.85h-.8c-1.93,0-2.89-.98-2.89-2.95v-1.34c0-1.96,.98-2.95,2.95-2.95h1.02v-4.98c0-1.96,.98-2.95,2.95-2.95h3.11c1.96,0,2.95,.98,2.95,2.95v4.98h2.84c1.96,0,2.95,.98,2.95,2.95v1.34c0,1.96-.96,2.95-2.89,2.95h-2.89v8.36c0,1.18,.33,2.03,.99,2.54,.66,.52,1.4,.83,2.22,.94,1.07,.14,1.83,.41,2.28,.8,.45,.39,.67,1.11,.67,2.14v2.41c0,1.11-.32,1.88-.96,2.3-.64,.43-1.59,.64-2.84,.64-1.04,0-2.21-.14-3.54-.43-1.32-.29-2.59-.8-3.8-1.55-1.21-.75-2.23-1.78-3.05-3.08-.82-1.3-1.23-2.97-1.23-5.01v-10.07Z"/>
        <path class="cls-1" d="M117.77,68.37c0-1.96,.98-2.95,2.95-2.95h3.37c1.96,0,2.95,.98,2.95,2.95v8.25c0,.36,0,.68-.03,.96-.02,.29-.03,.54-.03,.75-.04,.25-.05,.46-.05,.64h.11c.5-.64,1.12-1.21,1.87-1.71,.61-.43,1.39-.83,2.36-1.21,.96-.38,2.09-.56,3.37-.56,1.82,0,3.48,.35,4.98,1.04,1.5,.7,2.79,1.68,3.86,2.95,1.07,1.27,1.91,2.78,2.52,4.53,.61,1.75,.91,3.68,.91,5.78,0,2.21-.33,4.22-.99,6.03-.66,1.8-1.56,3.34-2.7,4.61-1.14,1.27-2.48,2.24-4.02,2.92-1.54,.68-3.2,1.02-4.98,1.02-1.5,0-2.74-.2-3.72-.59-.98-.39-1.78-.84-2.38-1.34-.71-.57-1.3-1.21-1.77-1.93h-.11v.16c0,.07,0,.13,.03,.19,.02,.05,.03,.12,.03,.19v.21c0,.71-.25,1.3-.75,1.77-.5,.46-1.23,.7-2.2,.7h-2.62c-1.96,0-2.95-.98-2.95-2.95v-32.41Zm9,21.45c0,.93,.12,1.81,.35,2.64,.23,.83,.57,1.55,1.02,2.18,.45,.63,1,1.13,1.66,1.51,.66,.38,1.42,.56,2.28,.56,1.53,0,2.84-.57,3.91-1.72,1.07-1.15,1.61-2.8,1.61-4.95s-.49-3.68-1.47-4.92c-.98-1.24-2.28-1.86-3.88-1.86-.71,0-1.4,.13-2.06,.4-.66,.27-1.24,.67-1.74,1.21-.5,.54-.9,1.22-1.21,2.04-.3,.82-.46,1.79-.46,2.9Z"/>
        <path class="cls-1" d="M149.05,95.95c0-1.86,.49-3.39,1.47-4.61,.98-1.21,2.24-2.18,3.78-2.89,1.54-.71,3.21-1.21,5.04-1.5,1.82-.29,3.59-.43,5.3-.43h.8v-.48c0-1.14-.39-1.94-1.18-2.38-.79-.45-1.7-.67-2.73-.67-.89,0-1.77,.13-2.62,.38-.86,.25-1.64,.54-2.36,.86-1.82,.79-3.14,.36-3.96-1.29l-.64-1.34c-.39-.82-.5-1.58-.32-2.28,.18-.7,.68-1.26,1.5-1.69,1.04-.5,2.34-.98,3.91-1.45,1.57-.46,3.36-.7,5.36-.7,3.82,0,6.83,.99,9.03,2.97,2.2,1.98,3.29,4.74,3.29,8.28v14.03c0,1.96-.98,2.95-2.95,2.95h-2.57c-1.96,0-2.95-1-2.95-3v-.59c0-.07,.02-.12,.05-.16h-.11c-.54,.82-1.2,1.55-1.98,2.2-.68,.57-1.54,1.08-2.57,1.53-1.04,.45-2.23,.67-3.59,.67s-2.54-.21-3.64-.64c-1.11-.43-2.05-1.02-2.84-1.77-.79-.75-1.4-1.64-1.85-2.68-.45-1.04-.67-2.14-.67-3.32Zm9.16-.86c0,.64,.22,1.2,.67,1.66,.45,.46,1.1,.7,1.96,.7,.68,0,1.3-.15,1.88-.46,.57-.3,1.07-.69,1.5-1.15,.43-.46,.76-.98,.99-1.55,.23-.57,.35-1.14,.35-1.71v-.75h-.86c-.71,0-1.46,.05-2.22,.16-.77,.11-1.46,.29-2.09,.54-.63,.25-1.14,.58-1.55,.99-.41,.41-.62,.94-.62,1.58Z"/>
        <path class="cls-1" d="M179.74,79.08c0-1.96,.98-2.95,2.95-2.95h3c1.96,0,2.95,.98,2.95,2.95v1.71c0,.25,0,.46-.03,.64-.02,.18-.03,.36-.03,.54-.04,.18-.05,.36-.05,.54h.11c.21-.71,.55-1.46,1.02-2.25,.46-.78,1.02-1.5,1.66-2.14s1.37-1.18,2.17-1.61c.8-.43,1.63-.64,2.49-.64,.93,0,1.58,.25,1.96,.75,.38,.5,.56,1.23,.56,2.2v3c0,1.96-.98,2.95-2.95,2.95-1.11,0-2.07,.22-2.89,.67-.82,.45-1.5,1.04-2.04,1.79-.54,.75-.94,1.62-1.21,2.62-.27,1-.4,2.05-.4,3.16v7.77c0,1.96-.98,2.95-2.95,2.95h-3.37c-1.96,0-2.95-.98-2.95-2.95v-21.69Z"/>
      </g>
    </g>
    <g>
      <path class="cls-1" d="M1.56,117.5h-.37c-.4,0-.61-.21-.61-.62v-.25c0-.41,.2-.62,.61-.62h.37v-.35c0-.6,.11-1.08,.34-1.44s.5-.64,.81-.83c.31-.2,.63-.33,.95-.39,.32-.06,.58-.1,.78-.1h.22c.4,0,.61,.21,.61,.63v.39c0,.38-.21,.58-.64,.61-.12,0-.25,.03-.38,.05-.14,.02-.27,.08-.38,.16-.12,.08-.22,.2-.3,.36-.08,.16-.13,.37-.13,.64v.28h1c.4,0,.61,.21,.61,.62v.25c0,.41-.2,.62-.61,.62h-1v5.32c0,.41-.21,.62-.62,.62h-.65c-.4,0-.61-.21-.61-.62v-5.32Z"/>
      <path class="cls-1" d="M5.16,121.35c0-.36,.07-.68,.21-.95,.14-.27,.33-.5,.56-.69,.24-.19,.5-.35,.8-.47,.3-.12,.61-.21,.94-.28,.33-.07,.65-.12,.98-.14,.32-.02,.63-.04,.92-.04h.31v-.18c0-.49-.14-.84-.41-1.03-.28-.2-.61-.3-.99-.3-.32,0-.61,.05-.89,.14-.28,.09-.5,.19-.68,.29-.38,.17-.66,.08-.83-.25l-.15-.28c-.19-.36-.11-.64,.24-.83,.25-.13,.58-.26,1-.41,.42-.14,.91-.21,1.47-.21,.98,0,1.75,.26,2.3,.78s.82,1.26,.82,2.22v4.09c0,.41-.21,.62-.62,.62h-.5c-.4,0-.61-.21-.61-.62v-.3c0-.12,0-.2,.01-.24,0-.04,0-.07,.01-.09h-.03c-.15,.27-.33,.5-.56,.71-.2,.18-.44,.34-.74,.49-.3,.15-.65,.22-1.06,.22-.34,0-.67-.05-.97-.16-.3-.11-.56-.26-.79-.46-.23-.2-.41-.43-.54-.71-.13-.28-.2-.59-.2-.93Zm1.86-.16c0,.26,.1,.49,.29,.69s.48,.3,.85,.3c.27,0,.5-.06,.72-.18,.21-.12,.39-.27,.54-.47,.15-.19,.26-.41,.35-.64s.13-.47,.13-.69v-.28h-.31c-.24,0-.5,.01-.8,.04-.3,.03-.57,.09-.83,.18-.26,.09-.48,.22-.66,.38s-.27,.39-.27,.66Z"/>
      <path class="cls-1" d="M12.95,122.84c-.17-.1-.26-.22-.28-.37-.02-.15,.02-.31,.13-.47l.18-.27c.11-.16,.23-.25,.36-.27,.13-.02,.29,.02,.48,.12,.18,.1,.41,.21,.69,.33s.61,.18,1,.18c.32,0,.58-.07,.77-.21,.19-.14,.28-.32,.28-.56,0-.21-.09-.37-.27-.5-.18-.12-.41-.24-.69-.34-.28-.1-.58-.21-.9-.33-.32-.12-.62-.27-.9-.44-.28-.18-.51-.4-.69-.68-.18-.28-.27-.63-.27-1.06,0-.36,.08-.69,.23-.97s.36-.52,.62-.71c.26-.19,.57-.33,.92-.43,.35-.1,.72-.15,1.12-.15,.5,0,.93,.06,1.28,.19s.62,.25,.82,.35c.17,.09,.27,.21,.3,.35,.03,.15,0,.31-.07,.47l-.15,.27c-.09,.18-.2,.28-.34,.31-.14,.03-.3,0-.49-.07-.17-.08-.37-.16-.61-.24s-.51-.13-.83-.13-.58,.06-.75,.19-.27,.31-.27,.55c0,.21,.09,.37,.27,.5,.18,.13,.41,.24,.69,.34,.28,.1,.58,.2,.9,.32,.32,.11,.62,.26,.9,.44,.28,.18,.51,.4,.69,.68,.18,.28,.27,.63,.27,1.05,0,.33-.07,.64-.2,.92-.13,.28-.33,.52-.58,.73-.25,.21-.55,.37-.91,.49s-.75,.18-1.18,.18c-.61,0-1.12-.09-1.54-.27-.42-.18-.74-.34-.97-.5Z"/>
      <path class="cls-1" d="M19.77,117.5h-.4c-.4,0-.61-.21-.61-.62v-.25c0-.41,.21-.62,.62-.62h.43v-1.54c0-.41,.21-.62,.62-.62h.59c.41,0,.62,.21,.62,.62v1.54h1.09c.41,0,.62,.21,.62,.62v.25c0,.41-.2,.62-.61,.62h-1.11v2.92c0,.29,.04,.51,.12,.69,.08,.17,.18,.31,.3,.41s.25,.18,.39,.22c.14,.04,.28,.07,.41,.08,.23,.02,.39,.07,.48,.16,.09,.09,.14,.24,.14,.44v.46c0,.23-.06,.39-.19,.48-.13,.09-.32,.14-.58,.14-.33,0-.68-.05-1.03-.15-.35-.1-.66-.26-.95-.47s-.51-.5-.69-.85-.27-.78-.27-1.29v-3.25Z"/>
      <path class="cls-1" d="M24.47,122.04c.1-.34,.33-.52,.69-.52h.56c.23,0,.38,.07,.47,.2,.09,.13,.09,.31,0,.52l-1.02,2.47c-.13,.31-.36,.47-.71,.47h-.19c-.23,0-.39-.06-.48-.19-.09-.12-.11-.29-.05-.51l.72-2.45Z"/>
      <path class="cls-1" d="M30.46,119.67c0-.58,.09-1.11,.28-1.6,.19-.48,.45-.9,.78-1.25,.33-.35,.74-.62,1.21-.81s.99-.29,1.55-.29c.53,0,1.01,.09,1.43,.27s.77,.43,1.05,.75c.28,.31,.49,.69,.64,1.14,.15,.44,.22,.92,.22,1.43,0,.17-.06,.31-.18,.44s-.28,.19-.47,.19h-4.59c.03,.35,.11,.65,.24,.9,.13,.26,.3,.47,.5,.64,.2,.17,.43,.3,.69,.39,.26,.09,.53,.13,.82,.13,.34,0,.66-.05,.94-.16,.28-.11,.51-.22,.69-.32,.19-.09,.35-.12,.48-.09,.13,.03,.25,.13,.35,.3l.18,.3c.19,.35,.12,.63-.21,.83-.25,.16-.59,.32-1.02,.5-.43,.17-.95,.26-1.54,.26-.62,0-1.18-.11-1.68-.32-.5-.21-.93-.5-1.28-.86-.35-.36-.62-.78-.8-1.26-.19-.48-.28-.98-.28-1.51Zm5.3-.86c-.02-.53-.17-.94-.45-1.23-.28-.29-.64-.44-1.07-.44-.48,0-.88,.15-1.2,.46s-.52,.71-.61,1.21h3.34Z"/>
      <path class="cls-1" d="M38.04,121.35c0-.36,.07-.68,.21-.95,.14-.27,.33-.5,.56-.69,.24-.19,.5-.35,.8-.47,.3-.12,.61-.21,.94-.28,.33-.07,.65-.12,.98-.14,.32-.02,.63-.04,.92-.04h.31v-.18c0-.49-.14-.84-.41-1.03-.28-.2-.61-.3-.99-.3-.32,0-.61,.05-.89,.14-.28,.09-.5,.19-.68,.29-.38,.17-.66,.08-.83-.25l-.15-.28c-.19-.36-.11-.64,.24-.83,.25-.13,.58-.26,1-.41,.42-.14,.91-.21,1.47-.21,.98,0,1.75,.26,2.3,.78s.82,1.26,.82,2.22v4.09c0,.41-.21,.62-.62,.62h-.5c-.4,0-.61-.21-.61-.62v-.3c0-.12,0-.2,.01-.24,0-.04,0-.07,.01-.09h-.03c-.15,.27-.33,.5-.56,.71-.2,.18-.44,.34-.74,.49-.3,.15-.65,.22-1.06,.22-.34,0-.67-.05-.97-.16-.3-.11-.56-.26-.79-.46-.23-.2-.41-.43-.54-.71-.13-.28-.2-.59-.2-.93Zm1.86-.16c0,.26,.1,.49,.29,.69s.48,.3,.85,.3c.27,0,.5-.06,.72-.18,.21-.12,.39-.27,.54-.47,.15-.19,.26-.41,.35-.64s.13-.47,.13-.69v-.28h-.31c-.24,0-.5,.01-.8,.04-.3,.03-.57,.09-.83,.18-.26,.09-.48,.22-.66,.38s-.27,.39-.27,.66Z"/>
      <path class="cls-1" d="M45.82,122.84c-.17-.1-.26-.22-.28-.37-.02-.15,.02-.31,.13-.47l.18-.27c.11-.16,.23-.25,.36-.27,.13-.02,.29,.02,.48,.12,.18,.1,.41,.21,.69,.33s.61,.18,1,.18c.32,0,.58-.07,.77-.21,.19-.14,.28-.32,.28-.56,0-.21-.09-.37-.27-.5-.18-.12-.41-.24-.69-.34-.28-.1-.58-.21-.9-.33-.32-.12-.62-.27-.9-.44-.28-.18-.51-.4-.69-.68-.18-.28-.27-.63-.27-1.06,0-.36,.08-.69,.23-.97s.36-.52,.62-.71c.26-.19,.57-.33,.92-.43,.35-.1,.72-.15,1.12-.15,.5,0,.93,.06,1.28,.19s.62,.25,.82,.35c.17,.09,.27,.21,.3,.35,.03,.15,0,.31-.07,.47l-.15,.27c-.09,.18-.2,.28-.34,.31-.14,.03-.3,0-.49-.07-.17-.08-.37-.16-.61-.24s-.51-.13-.83-.13-.58,.06-.75,.19-.27,.31-.27,.55c0,.21,.09,.37,.27,.5,.18,.13,.41,.24,.69,.34,.28,.1,.58,.2,.9,.32,.32,.11,.62,.26,.9,.44,.28,.18,.51,.4,.69,.68,.18,.28,.27,.63,.27,1.05,0,.33-.07,.64-.2,.92-.13,.28-.33,.52-.58,.73-.25,.21-.55,.37-.91,.49s-.75,.18-1.18,.18c-.61,0-1.12-.09-1.54-.27-.42-.18-.74-.34-.97-.5Z"/>
      <path class="cls-1" d="M51.95,124.87c.12-.04,.24-.05,.37-.02,.07,.03,.15,.06,.24,.09,.09,.03,.19,.04,.3,.04,.28,0,.52-.1,.72-.3,.21-.2,.36-.44,.47-.7l.28-.66-2.87-6.69c-.1-.22-.1-.39-.02-.52,.09-.13,.25-.2,.49-.2h.8c.34,0,.58,.17,.69,.5l1.42,3.84c.03,.11,.06,.22,.1,.33s.07,.22,.1,.33c.04,.12,.07,.24,.09,.35h.03c.02-.12,.04-.23,.07-.34,.02-.1,.05-.2,.08-.32,.03-.11,.07-.22,.1-.33l1.33-3.85c.1-.34,.33-.52,.69-.52h.74c.23,0,.39,.06,.48,.19,.09,.13,.1,.3,.02,.52l-3.1,7.95c-.13,.34-.29,.64-.49,.89-.2,.25-.41,.45-.65,.61s-.49,.28-.76,.36c-.27,.08-.54,.12-.82,.12-.21,0-.4-.02-.58-.07s-.33-.1-.47-.15c-.18-.07-.29-.18-.33-.32-.04-.15-.03-.31,.05-.47l.13-.32c.08-.17,.18-.27,.3-.32Z"/>
      <path class="cls-1" d="M59.06,122.04c.1-.34,.33-.52,.69-.52h.56c.23,0,.38,.07,.47,.2,.09,.13,.09,.31,0,.52l-1.02,2.47c-.13,.31-.36,.47-.71,.47h-.19c-.23,0-.39-.06-.48-.19-.09-.12-.11-.29-.05-.51l.72-2.45Z"/>
      <path class="cls-1" d="M65.33,122.84c-.17-.1-.26-.22-.28-.37-.02-.15,.02-.31,.13-.47l.18-.27c.11-.16,.23-.25,.36-.27,.13-.02,.29,.02,.48,.12,.18,.1,.41,.21,.69,.33s.61,.18,1,.18c.32,0,.58-.07,.77-.21,.19-.14,.28-.32,.28-.56,0-.21-.09-.37-.27-.5-.18-.12-.41-.24-.69-.34-.28-.1-.58-.21-.9-.33-.32-.12-.62-.27-.9-.44-.28-.18-.51-.4-.69-.68-.18-.28-.27-.63-.27-1.06,0-.36,.08-.69,.23-.97s.36-.52,.62-.71c.26-.19,.57-.33,.92-.43,.35-.1,.72-.15,1.12-.15,.5,0,.93,.06,1.28,.19s.62,.25,.82,.35c.17,.09,.27,.21,.3,.35,.03,.15,0,.31-.07,.47l-.15,.27c-.09,.18-.2,.28-.34,.31-.14,.03-.3,0-.49-.07-.17-.08-.37-.16-.61-.24s-.51-.13-.83-.13-.58,.06-.75,.19-.27,.31-.27,.55c0,.21,.09,.37,.27,.5,.18,.13,.41,.24,.69,.34,.28,.1,.58,.2,.9,.32,.32,.11,.62,.26,.9,.44,.28,.18,.51,.4,.69,.68,.18,.28,.27,.63,.27,1.05,0,.33-.07,.64-.2,.92-.13,.28-.33,.52-.58,.73-.25,.21-.55,.37-.91,.49s-.75,.18-1.18,.18c-.61,0-1.12-.09-1.54-.27-.42-.18-.74-.34-.97-.5Z"/>
      <path class="cls-1" d="M71.64,116.52c0-.41,.21-.62,.62-.62h.64c.41,0,.62,.21,.62,.62v3.84c0,.46,.08,.83,.24,1.12,.16,.28,.47,.42,.93,.42,.33,0,.64-.07,.9-.21,.27-.14,.49-.33,.66-.56s.31-.51,.41-.81,.14-.63,.14-.96v-2.84c0-.41,.21-.62,.62-.62h.64c.41,0,.62,.21,.62,.62v6.29c0,.41-.21,.62-.62,.62h-.58c-.4,0-.61-.21-.61-.62v-.58s0-.07,.01-.1c0-.04,0-.07,.01-.1h-.03c-.09,.2-.21,.39-.38,.58-.16,.19-.36,.35-.58,.5-.23,.15-.48,.27-.75,.36-.28,.09-.58,.14-.9,.14-.81,0-1.45-.22-1.91-.66-.47-.44-.7-1.18-.7-2.2v-4.22Z"/>
      <path class="cls-1" d="M79.97,122.84c-.17-.1-.26-.22-.28-.37-.02-.15,.02-.31,.13-.47l.18-.27c.11-.16,.23-.25,.36-.27,.13-.02,.29,.02,.48,.12,.18,.1,.41,.21,.69,.33s.61,.18,1,.18c.32,0,.58-.07,.77-.21,.19-.14,.28-.32,.28-.56,0-.21-.09-.37-.27-.5-.18-.12-.41-.24-.69-.34-.28-.1-.58-.21-.9-.33-.32-.12-.62-.27-.9-.44-.28-.18-.51-.4-.69-.68-.18-.28-.27-.63-.27-1.06,0-.36,.08-.69,.23-.97s.36-.52,.62-.71c.26-.19,.57-.33,.92-.43,.35-.1,.72-.15,1.12-.15,.5,0,.93,.06,1.28,.19s.62,.25,.82,.35c.17,.09,.27,.21,.3,.35,.03,.15,0,.31-.07,.47l-.15,.27c-.09,.18-.2,.28-.34,.31-.14,.03-.3,0-.49-.07-.17-.08-.37-.16-.61-.24s-.51-.13-.83-.13-.58,.06-.75,.19-.27,.31-.27,.55c0,.21,.09,.37,.27,.5,.18,.13,.41,.24,.69,.34,.28,.1,.58,.2,.9,.32,.32,.11,.62,.26,.9,.44,.28,.18,.51,.4,.69,.68,.18,.28,.27,.63,.27,1.05,0,.33-.07,.64-.2,.92-.13,.28-.33,.52-.58,.73-.25,.21-.55,.37-.91,.49s-.75,.18-1.18,.18c-.61,0-1.12-.09-1.54-.27-.42-.18-.74-.34-.97-.5Z"/>
      <path class="cls-1" d="M86.79,117.5h-.4c-.4,0-.61-.21-.61-.62v-.25c0-.41,.21-.62,.62-.62h.43v-1.54c0-.41,.21-.62,.62-.62h.59c.41,0,.62,.21,.62,.62v1.54h1.09c.41,0,.62,.21,.62,.62v.25c0,.41-.2,.62-.61,.62h-1.11v2.92c0,.29,.04,.51,.12,.69,.08,.17,.18,.31,.3,.41s.25,.18,.39,.22c.14,.04,.28,.07,.41,.08,.23,.02,.39,.07,.48,.16,.09,.09,.14,.24,.14,.44v.46c0,.23-.06,.39-.19,.48-.13,.09-.32,.14-.58,.14-.33,0-.68-.05-1.03-.15-.35-.1-.66-.26-.95-.47s-.51-.5-.69-.85-.27-.78-.27-1.29v-3.25Z"/>
      <path class="cls-1" d="M90.81,121.35c0-.36,.07-.68,.21-.95,.14-.27,.33-.5,.56-.69,.24-.19,.5-.35,.8-.47,.3-.12,.61-.21,.94-.28,.33-.07,.65-.12,.98-.14,.32-.02,.63-.04,.92-.04h.31v-.18c0-.49-.14-.84-.41-1.03-.28-.2-.61-.3-.99-.3-.32,0-.61,.05-.89,.14-.28,.09-.5,.19-.68,.29-.38,.17-.66,.08-.83-.25l-.15-.28c-.19-.36-.11-.64,.24-.83,.25-.13,.58-.26,1-.41,.42-.14,.91-.21,1.47-.21,.98,0,1.75,.26,2.3,.78s.82,1.26,.82,2.22v4.09c0,.41-.21,.62-.62,.62h-.5c-.4,0-.61-.21-.61-.62v-.3c0-.12,0-.2,.01-.24,0-.04,0-.07,.01-.09h-.03c-.15,.27-.33,.5-.56,.71-.2,.18-.44,.34-.74,.49-.3,.15-.65,.22-1.06,.22-.34,0-.67-.05-.97-.16-.3-.11-.56-.26-.79-.46-.23-.2-.41-.43-.54-.71-.13-.28-.2-.59-.2-.93Zm1.86-.16c0,.26,.1,.49,.29,.69s.48,.3,.85,.3c.27,0,.5-.06,.72-.18,.21-.12,.39-.27,.54-.47,.15-.19,.26-.41,.35-.64s.13-.47,.13-.69v-.28h-.31c-.24,0-.5,.01-.8,.04-.3,.03-.57,.09-.83,.18-.26,.09-.48,.22-.66,.38s-.27,.39-.27,.66Z"/>
      <path class="cls-1" d="M99.38,114.62c-.4,0-.61-.2-.61-.61v-.44c0-.41,.2-.62,.61-.62h.65c.41,0,.62,.21,.62,.62v.44c0,.4-.21,.61-.62,.61h-.65Zm-.61,1.91c0-.41,.2-.62,.61-.62h.65c.4,0,.61,.21,.61,.62v6.29c0,.41-.2,.62-.61,.62h-.65c-.4,0-.61-.21-.61-.62v-6.29Z"/>
      <path class="cls-1" d="M102.12,116.52c0-.41,.2-.62,.61-.62h.58c.4,0,.61,.21,.61,.62v.46s0,.09,0,.13c0,.04,0,.07,0,.1,0,.04-.01,.07-.01,.1h.03c.08-.16,.19-.33,.34-.52,.15-.19,.33-.36,.55-.52,.22-.16,.47-.29,.77-.4,.3-.11,.64-.16,1.02-.16,.84,0,1.48,.23,1.94,.68,.46,.45,.69,1.18,.69,2.19v4.22c0,.41-.21,.62-.62,.62h-.63c-.41,0-.62-.21-.62-.62v-3.84c0-.46-.08-.83-.24-1.12-.16-.28-.47-.42-.95-.42-.33,0-.63,.06-.9,.19-.27,.13-.49,.31-.68,.53-.19,.23-.33,.49-.44,.79-.1,.3-.16,.62-.16,.95v2.91c0,.41-.2,.62-.61,.62h-.65c-.4,0-.61-.21-.61-.62v-6.29Z"/>
      <path class="cls-1" d="M110.02,121.35c0-.36,.07-.68,.21-.95,.14-.27,.33-.5,.56-.69,.24-.19,.5-.35,.8-.47,.3-.12,.61-.21,.94-.28,.33-.07,.65-.12,.98-.14,.32-.02,.63-.04,.92-.04h.31v-.18c0-.49-.14-.84-.41-1.03-.28-.2-.61-.3-.99-.3-.32,0-.61,.05-.89,.14-.28,.09-.5,.19-.68,.29-.38,.17-.66,.08-.83-.25l-.15-.28c-.19-.36-.11-.64,.24-.83,.25-.13,.58-.26,1-.41,.42-.14,.91-.21,1.47-.21,.98,0,1.75,.26,2.3,.78s.82,1.26,.82,2.22v4.09c0,.41-.21,.62-.62,.62h-.5c-.4,0-.61-.21-.61-.62v-.3c0-.12,0-.2,.01-.24,0-.04,0-.07,.01-.09h-.03c-.15,.27-.33,.5-.56,.71-.2,.18-.44,.34-.74,.49-.3,.15-.65,.22-1.06,.22-.34,0-.67-.05-.97-.16-.3-.11-.56-.26-.79-.46-.23-.2-.41-.43-.54-.71-.13-.28-.2-.59-.2-.93Zm1.86-.16c0,.26,.1,.49,.29,.69s.48,.3,.85,.3c.27,0,.5-.06,.72-.18,.21-.12,.39-.27,.54-.47,.15-.19,.26-.41,.35-.64s.13-.47,.13-.69v-.28h-.31c-.24,0-.5,.01-.8,.04-.3,.03-.57,.09-.83,.18-.26,.09-.48,.22-.66,.38s-.27,.39-.27,.66Z"/>
      <path class="cls-1" d="M117.99,113.57c0-.41,.21-.62,.62-.62h.64c.41,0,.62,.21,.62,.62v2.73c0,.1,0,.18,0,.26,0,.07-.01,.14-.02,.2-.01,.07-.02,.13-.02,.18h.03c.14-.23,.31-.43,.53-.61,.19-.15,.43-.29,.72-.41,.29-.13,.64-.19,1.06-.19,.5,0,.96,.1,1.37,.29,.41,.19,.76,.46,1.05,.81s.51,.76,.67,1.24c.16,.48,.24,1.01,.24,1.59s-.09,1.15-.27,1.63-.42,.9-.72,1.25-.67,.61-1.09,.8-.88,.28-1.36,.28c-.43,0-.79-.06-1.08-.19-.29-.13-.52-.28-.71-.44-.22-.18-.39-.39-.52-.63h-.03s0,.05,.02,.09c0,.03,0,.06,0,.1,0,.04,0,.08,0,.13v.24c0,.17-.05,.3-.16,.39-.1,.09-.26,.14-.46,.14h-.5c-.41,0-.62-.21-.62-.62v-9.25Zm1.82,6.11c0,.3,.04,.6,.12,.88s.2,.54,.35,.75c.16,.22,.35,.39,.58,.52,.23,.13,.5,.2,.8,.2,.27,0,.51-.05,.75-.15s.43-.25,.61-.45,.31-.44,.41-.73c.1-.29,.15-.62,.15-.99,0-.35-.05-.67-.14-.96-.09-.29-.22-.54-.38-.74-.16-.21-.36-.37-.58-.48s-.48-.17-.75-.17c-.25,0-.48,.05-.71,.14s-.43,.24-.61,.43-.32,.43-.43,.72-.16,.64-.16,1.04Z"/>
      <path class="cls-1" d="M126.51,113.57c0-.41,.2-.62,.61-.62h.65c.4,0,.61,.21,.61,.62v7.37c0,.19,.02,.34,.05,.45,.03,.11,.08,.2,.14,.27s.12,.11,.19,.13c.07,.02,.14,.04,.21,.05,.14,.02,.25,.07,.33,.16s.13,.21,.13,.38v.5c0,.2-.05,.35-.14,.46-.09,.11-.25,.17-.48,.17-.26,0-.52-.02-.78-.07-.27-.05-.51-.16-.74-.32s-.41-.41-.55-.73c-.14-.32-.21-.75-.21-1.29v-7.52Z"/>
      <path class="cls-1" d="M129.82,119.67c0-.58,.09-1.11,.28-1.6,.19-.48,.45-.9,.78-1.25,.33-.35,.74-.62,1.21-.81s.99-.29,1.55-.29c.53,0,1.01,.09,1.43,.27s.77,.43,1.05,.75c.28,.31,.49,.69,.64,1.14,.15,.44,.22,.92,.22,1.43,0,.17-.06,.31-.18,.44s-.28,.19-.47,.19h-4.59c.03,.35,.11,.65,.24,.9,.13,.26,.3,.47,.5,.64,.2,.17,.43,.3,.69,.39,.26,.09,.53,.13,.82,.13,.34,0,.66-.05,.94-.16,.28-.11,.51-.22,.69-.32,.19-.09,.35-.12,.48-.09,.13,.03,.25,.13,.35,.3l.18,.3c.19,.35,.12,.63-.21,.83-.25,.16-.59,.32-1.02,.5-.43,.17-.95,.26-1.54,.26-.62,0-1.18-.11-1.68-.32-.5-.21-.93-.5-1.28-.86-.35-.36-.62-.78-.8-1.26-.19-.48-.28-.98-.28-1.51Zm5.3-.86c-.02-.53-.17-.94-.45-1.23-.28-.29-.64-.44-1.07-.44-.48,0-.88,.15-1.2,.46s-.52,.71-.61,1.21h3.34Z"/>
      <path class="cls-1" d="M141.29,116.52c0-.41,.2-.62,.61-.62h.58c.4,0,.61,.21,.61,.62v.46s0,.09,0,.13c0,.04,0,.07,0,.1,0,.04-.01,.07-.01,.1h.03c.09-.19,.21-.37,.37-.56,.16-.19,.34-.36,.55-.51,.21-.15,.45-.28,.71-.38,.26-.1,.54-.15,.83-.15,1.15,0,1.89,.52,2.2,1.55h.03c.1-.2,.23-.39,.41-.58s.37-.35,.59-.5c.22-.14,.47-.26,.73-.35,.27-.09,.55-.13,.84-.13,.79,0,1.4,.23,1.82,.69,.43,.46,.64,1.18,.64,2.18v4.22c0,.41-.21,.62-.62,.62h-.64c-.41,0-.62-.21-.62-.62v-3.87c0-.22-.01-.42-.04-.6-.02-.18-.07-.34-.15-.47-.07-.13-.18-.24-.32-.32-.14-.08-.31-.12-.53-.12-.31,0-.59,.07-.83,.22-.24,.15-.44,.34-.61,.59s-.28,.53-.36,.84c-.08,.32-.12,.64-.12,.96v2.76c0,.41-.2,.62-.61,.62h-.65c-.41,0-.62-.21-.62-.62v-3.87c0-.21-.01-.4-.03-.58-.02-.18-.07-.34-.14-.48-.07-.14-.18-.25-.31-.33-.13-.08-.31-.12-.52-.12-.33,0-.62,.08-.86,.23-.24,.15-.44,.35-.61,.61s-.28,.53-.36,.84c-.08,.31-.12,.62-.12,.94v2.76c0,.41-.2,.62-.61,.62h-.65c-.4,0-.61-.21-.61-.62v-6.29Z"/>
      <path class="cls-1" d="M154.79,114.62c-.4,0-.61-.2-.61-.61v-.44c0-.41,.2-.62,.61-.62h.65c.41,0,.62,.21,.62,.62v.44c0,.4-.21,.61-.62,.61h-.65Zm-.61,1.91c0-.41,.2-.62,.61-.62h.65c.4,0,.61,.21,.61,.62v6.29c0,.41-.2,.62-.61,.62h-.65c-.4,0-.61-.21-.61-.62v-6.29Z"/>
      <path class="cls-1" d="M157.54,116.52c0-.41,.2-.62,.61-.62h.58c.4,0,.61,.21,.61,.62v.46s0,.09,0,.13c0,.04,0,.07,0,.1,0,.04-.01,.07-.01,.1h.03c.08-.16,.19-.33,.34-.52,.15-.19,.33-.36,.55-.52,.22-.16,.47-.29,.77-.4,.3-.11,.64-.16,1.02-.16,.84,0,1.48,.23,1.94,.68,.46,.45,.69,1.18,.69,2.19v4.22c0,.41-.21,.62-.62,.62h-.63c-.41,0-.62-.21-.62-.62v-3.84c0-.46-.08-.83-.24-1.12-.16-.28-.47-.42-.95-.42-.33,0-.63,.06-.9,.19-.27,.13-.49,.31-.68,.53-.19,.23-.33,.49-.44,.79-.1,.3-.16,.62-.16,.95v2.91c0,.41-.2,.62-.61,.62h-.65c-.4,0-.61-.21-.61-.62v-6.29Z"/>
      <path class="cls-1" d="M166.36,117.5h-.4c-.4,0-.61-.21-.61-.62v-.25c0-.41,.21-.62,.62-.62h.43v-1.54c0-.41,.21-.62,.62-.62h.59c.41,0,.62,.21,.62,.62v1.54h1.09c.41,0,.62,.21,.62,.62v.25c0,.41-.2,.62-.61,.62h-1.11v2.92c0,.29,.04,.51,.12,.69,.08,.17,.18,.31,.3,.41s.25,.18,.39,.22c.14,.04,.28,.07,.41,.08,.23,.02,.39,.07,.48,.16,.09,.09,.14,.24,.14,.44v.46c0,.23-.06,.39-.19,.48-.13,.09-.32,.14-.58,.14-.33,0-.68-.05-1.03-.15-.35-.1-.66-.26-.95-.47s-.51-.5-.69-.85-.27-.78-.27-1.29v-3.25Z"/>
      <path class="cls-1" d="M171.56,114.62c-.4,0-.61-.2-.61-.61v-.44c0-.41,.2-.62,.61-.62h.65c.41,0,.62,.21,.62,.62v.44c0,.4-.21,.61-.62,.61h-.65Zm-.61,1.91c0-.41,.2-.62,.61-.62h.65c.4,0,.61,.21,.61,.62v6.29c0,.41-.2,.62-.61,.62h-.65c-.4,0-.61-.21-.61-.62v-6.29Z"/>
      <path class="cls-1" d="M174.3,116.52c0-.41,.2-.62,.61-.62h.58c.4,0,.61,.21,.61,.62v.46s0,.09,0,.13c0,.04,0,.07,0,.1,0,.04-.01,.07-.01,.1h.03c.08-.16,.19-.33,.34-.52,.15-.19,.33-.36,.55-.52,.22-.16,.47-.29,.77-.4,.3-.11,.64-.16,1.02-.16,.84,0,1.48,.23,1.94,.68,.46,.45,.69,1.18,.69,2.19v4.22c0,.41-.21,.62-.62,.62h-.63c-.41,0-.62-.21-.62-.62v-3.84c0-.46-.08-.83-.24-1.12-.16-.28-.47-.42-.95-.42-.33,0-.63,.06-.9,.19-.27,.13-.49,.31-.68,.53-.19,.23-.33,.49-.44,.79-.1,.3-.16,.62-.16,.95v2.91c0,.41-.2,.62-.61,.62h-.65c-.4,0-.61-.21-.61-.62v-6.29Z"/>
      <path class="cls-1" d="M183.4,125c.08-.19,.18-.31,.3-.36s.28-.05,.48,.02c.18,.07,.39,.13,.64,.19s.54,.09,.89,.09c.29,0,.56-.03,.82-.1,.26-.06,.49-.17,.68-.32,.19-.15,.34-.34,.46-.57,.11-.23,.17-.51,.17-.85v-.69s0-.08,.01-.12c0-.04,0-.08,.01-.13h-.03c-.21,.35-.48,.63-.81,.83-.33,.2-.75,.3-1.26,.3-.55,0-1.04-.1-1.46-.3-.42-.2-.78-.48-1.07-.83s-.51-.76-.66-1.22c-.15-.46-.22-.96-.22-1.48s.07-.99,.21-1.45c.14-.45,.36-.85,.64-1.19,.29-.34,.64-.61,1.06-.81,.42-.2,.92-.3,1.48-.3,.44,0,.81,.06,1.09,.19s.51,.25,.68,.39c.2,.18,.35,.37,.46,.58h.03s-.02-.02-.02-.04v-.43c0-.14,.05-.26,.16-.35,.1-.1,.25-.15,.45-.15h.5c.4,0,.61,.21,.61,.62v6.45c0,.65-.12,1.2-.35,1.65-.23,.45-.53,.81-.9,1.1s-.79,.49-1.26,.62-.93,.19-1.4,.19c-.42,0-.83-.04-1.23-.12-.39-.08-.72-.17-.97-.28-.37-.16-.48-.42-.33-.8l.12-.34Zm2.73-3.29c.22,0,.43-.03,.64-.1,.21-.07,.4-.19,.56-.36,.16-.17,.29-.4,.39-.68,.1-.28,.15-.63,.15-1.06s-.05-.79-.15-1.07c-.1-.28-.23-.5-.4-.67s-.36-.28-.58-.35c-.22-.06-.46-.1-.7-.1-.59,0-1.04,.19-1.34,.57s-.46,.88-.46,1.5c0,.68,.16,1.24,.49,1.67,.33,.43,.79,.65,1.4,.65Z"/>
    </g>
  </g>
</svg>