<?xml version="1.0" encoding="utf-8"?>
<!-- Generator: Adobe Illustrator 25.4.1, SVG Export Plug-In . SVG Version: 6.00 Build 0)  -->
<svg version="1.1" id="Layer_1" xmlns="http://www.w3.org/2000/svg" xmlns:xlink="http://www.w3.org/1999/xlink" x="0px" y="0px"
	 viewBox="0 0 600 214" style="enable-background:new 0 0 600 214;" xml:space="preserve">
<style type="text/css">
	.st0{fill:#FFFFFF;}
</style>
<g>
	<path class="st0" d="M122.6,207H119l-11.2-35.7h5.2l8,25.9l8.7-25.9h3.6l8.7,25.9l8-25.9h5.2L144,207h-3.6l-8.9-26.4L122.6,207z"/>
	<path class="st0" d="M217.9,197.8h-15.1l-3.7,9.2h-5.3l14.8-35.7h3.6L227,207h-5.3L217.9,197.8z M204.9,193h11l-5.5-13.3L204.9,193
		z"/>
	<path class="st0" d="M276.7,202.2h15.8v4.8h-20.9v-35.7h5.1V202.2z"/>
	<path class="st0" d="M343.1,202.2h15.8v4.8H338v-35.7h5.1V202.2z"/>
	<path class="st0" d="M421.2,185.3v4.8h-11.7v12h15.8v4.8h-20.9v-35.7h20.4v4.8h-15.3v9.2H421.2z"/>
	<path class="st0" d="M467.9,171.3h24.5v4.8h-9.7V207h-5.1v-30.9h-9.7V171.3z"/>
</g>
<g>
	<path class="st0" d="M42,36.2c5,0,9,0.5,11.9,1.6c3,1.1,5.5,2.6,7.7,4.5c2.4,2.2,4.4,4.7,5.9,7.7c1.5,3,2.2,6.3,2.2,9.9
		c0,2.9-0.6,5.7-1.8,8.4c-1.2,2.7-2.5,4.7-3.9,6.2c3.9,1.9,7.1,4.9,9.5,8.9c2.4,4,3.6,8.5,3.6,13.4c0,3.7-0.7,7.2-2.2,10.4
		c-1.5,3.2-3.4,6-5.8,8.4c-2.4,2.4-5.4,4.3-9,5.7c-3.6,1.4-8.2,2.1-13.9,2.1H12.3V36.2H42z M29.1,70H41c2.7,0,4.7-0.3,6-0.9
		c1.3-0.6,2.5-1.3,3.4-2.2c0.7-0.8,1.4-1.8,1.8-2.9c0.5-1.1,0.7-2.2,0.7-3.4c0-1.2-0.2-2.3-0.7-3.4c-0.5-1.1-1.1-2-1.8-2.9
		c-0.9-0.9-2-1.7-3.4-2.2c-1.3-0.6-3.3-0.9-6-0.9H29.1V70z M46,108.7c2.9,0,5.2-0.4,7-1.1c1.8-0.7,3.2-1.6,4.2-2.8
		c2.1-2.2,3.1-4.9,3.1-8c0-3.1-1-5.7-3.1-8c-1.1-1.2-2.5-2.1-4.2-2.8c-1.7-0.7-4.1-1.1-7-1.1H29.1v23.7H46z"/>
	<path class="st0" d="M139.3,36.2h16.9v72.5H193v15h-53.7V36.2z"/>
	<path class="st0" d="M424,36.2c7,0,12.9,0.7,17.6,2.1c4.7,1.4,8.9,3.5,12.5,6.1c5.4,4,9.7,9.1,12.7,15.2c3.1,6.2,4.6,12.9,4.6,20.2
		c0,7.3-1.5,14.1-4.6,20.2c-3.1,6.2-7.3,11.2-12.7,15.2c-3.6,2.7-7.7,4.7-12.5,6.1c-4.7,1.4-10.6,2.1-17.6,2.1h-27.5V36.2H424z
		 M454.6,80c0-3.7-0.6-7.1-1.7-10.4c-1.1-3.2-2.7-6.1-4.7-8.6c-2.4-3.1-5.4-5.5-9.1-7.2c-3.6-1.7-8.1-2.6-13.3-2.6h-12.5v57.5h12.5
		c5.2,0,9.7-0.9,13.3-2.6c3.6-1.7,6.6-4.1,9.1-7.2c2-2.5,3.6-5.4,4.7-8.6C454,87.1,454.6,83.6,454.6,80z"/>
	<path class="st0" d="M551,51.2v18.1h26.9v15H551v24.4h36.9v15h-53.7V36.2h52.5v15H551z"/>
	<polygon class="st0" points="274.3,112.4 288.2,78.6 277.1,50.9 243.1,135 310.8,135.1 301.8,112.4 	"/>
	<path class="st0" d="M292.1,5.4l-8.2,20.7l-0.3,0.8c-1.8,4.6-2.5,11.2-1.8,17.2c0.3,2.5,0.7,4.8,1.4,6.9c0.1,0.4,0.3,0.9,0.5,1.3
		l33.1,82.8h27.8L292.1,5.4z"/>
</g>
</svg>
