<svg width="1800" height="352" viewBox="0 0 1800 352" fill="none" xmlns="http://www.w3.org/2000/svg">
<path d="M1200.37 78.5607C1218.52 78.5607 1234.27 81.5514 1247.64 87.5327C1261.2 93.514 1271.57 102.087 1278.75 113.252C1285.93 124.417 1289.52 137.676 1289.52 153.028C1289.52 168.181 1285.93 181.439 1278.75 192.804C1271.57 203.969 1261.2 212.542 1247.64 218.523C1234.27 224.505 1218.52 227.495 1200.37 227.495H1153.1V287.907H1114.21V78.5607H1200.37ZM1198.57 194.598C1215.53 194.598 1228.39 191.009 1237.17 183.832C1245.94 176.654 1250.33 166.386 1250.33 153.028C1250.33 139.67 1245.94 129.402 1237.17 122.224C1228.39 115.047 1215.53 111.458 1198.57 111.458H1153.1V194.598H1198.57Z" fill="white"/>
<path d="M1369.37 126.411C1392.91 126.411 1410.86 132.093 1423.22 143.458C1435.79 154.623 1442.07 171.57 1442.07 194.299V287.907H1406.77V268.467C1402.18 275.445 1395.6 280.829 1387.02 284.617C1378.65 288.206 1368.48 290 1356.51 290C1344.54 290 1334.07 288.006 1325.1 284.019C1316.12 279.832 1309.14 274.15 1304.16 266.972C1299.37 259.595 1296.98 251.321 1296.98 242.15C1296.98 227.794 1302.26 216.33 1312.83 207.757C1323.6 198.984 1340.46 194.598 1363.39 194.598H1404.67V192.206C1404.67 181.041 1401.28 172.467 1394.5 166.486C1387.92 160.505 1378.05 157.514 1364.89 157.514C1355.91 157.514 1347.04 158.91 1338.26 161.701C1329.69 164.492 1322.41 168.38 1316.42 173.364L1301.76 146.15C1310.14 139.769 1320.21 134.885 1331.98 131.495C1343.75 128.106 1356.21 126.411 1369.37 126.411ZM1364.29 262.785C1373.66 262.785 1381.94 260.692 1389.12 256.505C1396.5 252.118 1401.68 245.938 1404.67 237.963V219.421H1366.08C1344.54 219.421 1333.77 226.498 1333.77 240.654C1333.77 247.433 1336.47 252.816 1341.85 256.804C1347.24 260.791 1354.72 262.785 1364.29 262.785Z" fill="white"/>
<path d="M1549.86 290C1533.3 290 1518.44 286.511 1505.28 279.533C1492.12 272.555 1481.85 262.885 1474.47 250.523C1467.09 237.963 1463.4 223.807 1463.4 208.056C1463.4 192.305 1467.09 178.249 1474.47 165.888C1481.85 153.526 1492.02 143.857 1504.98 136.879C1518.14 129.9 1533.1 126.411 1549.86 126.411C1565.61 126.411 1579.37 129.601 1591.14 135.981C1603.1 142.361 1612.08 151.533 1618.06 163.495L1589.34 180.243C1584.76 172.866 1578.97 167.383 1571.99 163.794C1565.21 160.006 1557.73 158.112 1549.56 158.112C1535.6 158.112 1524.03 162.698 1514.85 171.869C1505.68 180.841 1501.09 192.903 1501.09 208.056C1501.09 223.209 1505.58 235.371 1514.55 244.542C1523.73 253.514 1535.4 258 1549.56 258C1557.73 258 1565.21 256.206 1571.99 252.617C1578.97 248.829 1584.76 243.246 1589.34 235.869L1618.06 252.617C1611.88 264.579 1602.81 273.85 1590.84 280.43C1579.07 286.81 1565.41 290 1549.86 290Z" fill="white"/>
<path d="M1699.18 219.421L1671.36 245.738V287.907H1633.97V66H1671.36V199.981L1748.84 128.206H1793.72L1727.01 195.196L1800 287.907H1754.53L1699.18 219.421Z" fill="white"/>
<path d="M586.074 78.5607V287.907H547.184V198.187H438.89V287.907H400V78.5607H438.89V164.991H547.184V78.5607H586.074Z" fill="white"/>
<path d="M681.867 126.411C705.4 126.411 723.35 132.093 735.715 143.458C748.279 154.623 754.561 171.57 754.561 194.299V287.907H719.261V268.467C714.674 275.445 708.093 280.829 699.517 284.617C691.141 288.206 680.969 290 669.003 290C657.037 290 646.567 288.006 637.592 284.019C628.617 279.832 621.637 274.15 616.651 266.972C611.865 259.595 609.471 251.321 609.471 242.15C609.471 227.794 614.756 216.33 625.327 207.757C636.096 198.984 652.949 194.598 675.884 194.598H717.167V192.206C717.167 181.041 713.777 172.467 706.996 166.486C700.414 160.505 690.542 157.514 677.379 157.514C668.405 157.514 659.53 158.91 650.755 161.701C642.179 164.492 634.9 168.38 628.916 173.364L614.258 146.15C622.634 139.769 632.706 134.885 644.472 131.495C656.239 128.106 668.704 126.411 681.867 126.411ZM676.781 262.785C686.155 262.785 694.431 260.692 701.611 256.505C708.99 252.118 714.176 245.938 717.167 237.963V219.421H678.576C657.037 219.421 646.267 226.498 646.267 240.654C646.267 247.433 648.96 252.816 654.345 256.804C659.729 260.791 667.208 262.785 676.781 262.785Z" fill="white"/>
<path d="M839.755 290C826.792 290 814.128 288.305 801.763 284.916C789.397 281.527 779.525 277.24 772.146 272.056L786.506 243.645C793.685 248.43 802.261 252.318 812.233 255.308C822.404 258.1 832.376 259.495 842.148 259.495C864.485 259.495 875.654 253.614 875.654 241.85C875.654 236.268 872.762 232.38 866.978 230.187C861.394 227.994 852.32 225.9 839.755 223.907C826.592 221.913 815.823 219.62 807.446 217.028C799.27 214.436 792.09 209.95 785.907 203.57C779.924 196.991 776.933 187.919 776.933 176.355C776.933 161.202 783.215 149.14 795.779 140.168C808.543 130.997 825.695 126.411 847.234 126.411C858.203 126.411 869.172 127.707 880.141 130.299C891.11 132.692 900.085 135.981 907.065 140.168L892.706 168.579C879.144 160.604 863.887 156.617 846.935 156.617C835.966 156.617 827.59 158.312 821.806 161.701C816.222 164.891 813.43 169.178 813.43 174.561C813.43 180.542 816.421 184.829 822.404 187.421C828.587 189.813 838.06 192.106 850.824 194.299C863.588 196.293 874.058 198.586 882.235 201.178C890.412 203.769 897.392 208.156 903.176 214.336C909.159 220.517 912.151 229.29 912.151 240.654C912.151 255.607 905.669 267.57 892.706 276.542C879.742 285.514 862.092 290 839.755 290Z" fill="white"/>
<path d="M1020.04 126.411C1040.18 126.411 1056.34 132.293 1068.5 144.056C1080.67 155.819 1086.75 173.265 1086.75 196.393V287.907H1049.36V201.178C1049.36 187.221 1046.07 176.754 1039.49 169.776C1032.9 162.598 1023.53 159.009 1011.36 159.009C997.604 159.009 986.734 163.196 978.757 171.57C970.779 179.745 966.791 191.607 966.791 207.159V287.907H929.396V66H966.791V146.748C972.973 140.168 980.552 135.184 989.527 131.794C998.701 128.206 1008.87 126.411 1020.04 126.411Z" fill="white"/>
<path fill-rule="evenodd" clip-rule="evenodd" d="M288 56C288 135.529 223.529 200 144 200C64.471 200 0 135.529 0 56C0 25.0721 25.0721 0 56 0C86.9279 0 112 25.0721 112 56V163.362C132.752 169.538 155.248 169.538 176 163.362V56C176 25.0721 201.072 0 232 0C262.928 0 288 25.0721 288 56ZM56 32C69.2548 32 80 42.7452 80 56V147.925C50.9843 127.686 32 94.0599 32 56C32 42.7452 42.7452 32 56 32ZM208 56V147.925C237.016 127.686 256 94.0599 256 56C256 42.7452 245.255 32 232 32C218.745 32 208 42.7452 208 56Z" fill="#7A7AB8"/>
<path d="M208 296V220.002C167.21 235.934 120.757 235.922 80 220.002V296C80 309.255 69.2548 320 56 320C42.7452 320 32 309.255 32 296V191.771C19.8582 181.743 9.08432 170.119 0 157.219V296C0 326.928 25.0721 352 56 352C86.9279 352 112 326.928 112 296V261.554C133.162 264.821 154.838 264.821 176 261.554V296C176 326.928 201.072 352 232 352C262.928 352 288 326.928 288 296V157.219C278.916 170.119 268.142 181.743 256 191.771V296C256 309.255 245.255 320 232 320C218.745 320 208 309.255 208 296Z" fill="#7A7AB8"/>
</svg>
