<?xml version="1.0" encoding="UTF-8"?>
<svg id="Warstwa_2" data-name="Warstwa 2" xmlns="http://www.w3.org/2000/svg" viewBox="0 0 39.49 37.17">
  <defs>
    <style>
      .cls-1 {
        fill: #3f0;
        fill-rule: evenodd;
      }
    </style>
  </defs>
  <g id="Layer_2" data-name="Layer 2">
    <path class="cls-1" d="M27.54,29.86c-.45,.45-1.19,.45-1.64,0-.45-.45-.45-1.19,0-1.64l2.66-2.67H3.49c-.95,0-1.83-.39-2.46-1.02l-.02-.02c-.62-.63-1-1.49-1-2.44V3.48c0-.96,.39-1.83,1.02-2.46C1.65,.39,2.52,0,3.49,0H22.07c.96,0,1.83,.39,2.46,1.02,.63,.63,1.03,1.51,1.03,2.46v4.65c0,.64-.52,1.16-1.16,1.16s-1.16-.52-1.16-1.16V3.48c0-.32-.13-.61-.34-.82-.21-.21-.5-.34-.82-.34H3.49c-.32,0-.61,.13-.82,.34-.21,.21-.34,.5-.34,.82V22.07c0,.32,.13,.61,.34,.82,.22,.21,.51,.34,.82,.34H28.56l-2.66-2.66c-.45-.45-.45-1.19,0-1.64,.45-.45,1.19-.45,1.64,0l4.65,4.65,.02,.02,.02,.02,.02,.02h0s.01,.02,.01,.02h0s.01,.02,.01,.02h0s.01,.02,.01,.02l.02,.02h0s.01,.02,.01,.02h0s0,.03,0,.03h0s0,.03,0,.03l.02,.02h0s0,.03,0,.03h0s0,.03,0,.03h0s0,.03,0,.03h0s0,.02,0,.02h0s0,.03,0,.03v.02s.01,.01,.01,.01v.02s.01,0,.01,0h0s0,.03,0,.03v.02s.01,.03,.01,.03h0s0,.03,0,.03h0s0,.03,0,.03v.02s0,.01,0,.01v.02s0,.01,0,.01v.02s0,.01,0,.01v.02s0,.01,0,.01v.02s0,0,0,0v.02s0,0,0,0v.02s0,0,0,0v.02s0,0,0,0v.03h0v.06h0v.03h0s0,.03,0,.03h0s0,.03,0,.03h0s0,.03,0,.03h0s0,.03,0,.03h0s0,.03,0,.03h0s0,.03,0,.03h0s0,.03,0,.03h0s0,.03,0,.03h0s0,.03,0,.03h0s0,.03,0,.03v.03s-.01,.02-.01,.02h0s0,.03,0,.03h0s0,.03,0,.03h0s0,.03,0,.03h0s0,.03,0,.03h0s0,.02,0,.02h0s0,.03,0,.03h0s0,.03,0,.03h0s0,.03,0,.03l-.02,.02h0s0,.03,0,.03h0s0,.03,0,.03v.02s-.02,0-.02,0l-.02,.02v.02s-.02,0-.02,0v.02s-.02,0-.02,0v.02s-.02,0-.02,0l-.02,.02-.02,.02-.02,.02-4.65,4.65ZM10.93,11.61h25.07c.96,0,1.83,.39,2.46,1.02l.02,.02c.62,.63,1,1.49,1,2.44v18.58c0,.96-.39,1.83-1.02,2.46-.63,.63-1.5,1.02-2.46,1.02H17.42c-.96,0-1.83-.39-2.46-1.02-.64-.64-1.03-1.51-1.03-2.46v-4.65c0-.64,.52-1.16,1.16-1.16s1.16,.52,1.16,1.16v4.65c0,.31,.12,.6,.32,.81h.01c.21,.22,.5,.35,.82,.35h18.58c.32,0,.61-.13,.82-.34,.21-.21,.34-.5,.34-.82V15.1c0-.32-.13-.61-.34-.82-.22-.21-.51-.34-.83-.34H10.93l2.66,2.66c.45,.45,.45,1.19,0,1.64-.45,.45-1.19,.45-1.64,0l-4.64-4.64-.02-.02h0s-.01-.02-.01-.02l-.02-.02h0s-.02-.03-.02-.03h0s-.01-.02-.01-.02h0s-.01-.02-.01-.02l-.02-.02h0s0-.02,0-.02h0s0-.02,0-.02h0s0-.03,0-.03l-.02-.02h0s0-.02,0-.02h0s0-.03,0-.03h0s0-.02,0-.02h0s0-.03,0-.03h0s0-.03,0-.03v-.02s0-.01,0-.01h0s0-.03,0-.03h0s0-.03,0-.03v-.02s-.01-.03-.01-.03h0s0-.03,0-.03h0s0-.03,0-.03v-.02s0-.01,0-.01v-.02s0-.01,0-.01v-.02s0,0,0,0v-.02h0s0-.03,0-.03h0s0-.03,0-.03h0s0-.03,0-.03h0s0-.03,0-.03h0v-.03h0v-.06h0v-.03h0s0-.03,0-.03h0s0-.03,0-.03h0s0-.03,0-.03h0s0-.03,0-.03h0v-.03h0s0-.03,0-.03h0s0-.03,0-.03h0s0-.03,0-.03h0s0-.03,0-.03v-.02s0-.01,0-.01v-.03s.01-.02,.01-.02h0s0-.02,0-.02h0s0-.03,0-.03h0s0-.03,0-.03h0s0-.02,0-.02h0s0-.03,0-.03h0s0-.03,0-.03h0s0-.02,0-.02h0s0-.02,0-.02l.02-.03h0s0-.02,0-.02h0s0-.03,0-.03h0s0-.02,0-.02l.02-.02v-.02s.02,0,.02,0v-.02s.02,0,.02,0l.02-.02h0s.02-.02,.02-.02v-.02s.02,0,.02,0l.02-.02,4.64-4.65c.45-.45,1.19-.45,1.64,0,.45,.45,.45,1.19,0,1.64l-2.66,2.67Z"/>
  </g>
</svg>