<?xml version="1.0" encoding="UTF-8"?>
<svg id="Warstwa_2" data-name="Warstwa 2" xmlns="http://www.w3.org/2000/svg" viewBox="0 0 38.26 32.96">
  <defs>
    <style>
      .cls-1 {
        stroke-miterlimit: 10;
      }

      .cls-1, .cls-2 {
        fill: none;
        stroke: #3f0;
        stroke-width: .91px;
      }

      .cls-2 {
        stroke-linecap: round;
        stroke-linejoin: round;
      }
    </style>
  </defs>
  <g id="Layer_2" data-name="Layer 2">
    <path class="cls-1" d="M23.75,5.97c0-3.05-2.47-5.51-5.51-5.51s-5.52,2.47-5.52,5.51,2.47,5.52,5.52,5.52,5.51-2.47,5.51-5.52Z"/>
    <path class="cls-2" d="M11.81,16.41c1.78-1.38,4.01-2.2,6.43-2.2,4.33,0,8.06,2.62,9.66,6.37"/>
    <g>
      <path class="cls-1" d="M7.58,32.5c-.79,0-1.58-.13-2.32-.39-.77-.27-1.49-.66-2.14-1.18-.75-.6-1.36-1.33-1.81-2.17-.44-.81-.71-1.69-.81-2.61-.1-.92-.02-1.84,.23-2.72,.26-.92,.7-1.76,1.3-2.52,.69-.86,1.54-1.53,2.53-1.99,.94-.44,1.99-.68,3.04-.68,.79,0,1.58,.13,2.32,.39,.77,.27,1.49,.66,2.14,1.18,.75,.6,1.36,1.33,1.81,2.17,.44,.81,.71,1.69,.81,2.61s.02,1.84-.23,2.72c-.26,.92-.7,1.76-1.3,2.52-.69,.86-1.54,1.53-2.53,1.99-.94,.44-1.99,.68-3.04,.68Z"/>
      <polyline class="cls-2" points="3.78 25.96 6.3 28.48 11.39 23.4"/>
    </g>
    <g>
      <g>
        <g>
          <line class="cls-2" x1="25.89" y1="22.74" x2="30.2" y2="22.74"/>
          <line class="cls-2" x1="25.89" y1="25.71" x2="29.73" y2="25.71"/>
        </g>
        <line class="cls-2" x1="25.89" y1="22.74" x2="25.89" y2="29.08"/>
      </g>
      <polyline class="cls-2" points="18 29.26 18 22.63 22.8 29.17 22.8 22.63"/>
      <g>
        <line class="cls-2" x1="35.08" y1="22.66" x2="35.08" y2="29.08"/>
        <line class="cls-2" x1="37.81" y1="22.62" x2="32.35" y2="22.62"/>
      </g>
    </g>
  </g>
</svg>