<?xml version="1.0" encoding="UTF-8"?>
<svg id="Warstwa_2" data-name="Warstwa 2" xmlns="http://www.w3.org/2000/svg" viewBox="0 0 13.49 17.21">
  <defs>
    <style>
      .cls-1 {
        fill: #fff;
        stroke: #fff;
        stroke-miterlimit: 10;
        stroke-width: .54px;
      }
    </style>
  </defs>
  <g id="Layer_2" data-name="Layer 2">
    <g>
      <path class="cls-1" d="M12.04,4.54c-.22-.03-.42,.12-.45,.34l-1.43,10.29c-.07,.52-.5,.95-.93,.95H4.27c-.43,0-.86-.44-.93-.95L1.91,4.89c-.03-.22-.23-.37-.45-.34-.22,.03-.37,.23-.34,.45l1.43,10.29c.06,.43,.27,.84,.58,1.15,.33,.32,.74,.5,1.15,.5h4.95c.41,0,.82-.18,1.15-.5,.32-.31,.52-.72,.58-1.15l1.43-10.29c.03-.22-.12-.42-.34-.45Z"/>
      <path class="cls-1" d="M5.24,14.37s.01,0,.02,0c.22-.01,.39-.2,.38-.42l-.44-8.29c-.01-.22-.2-.39-.42-.38-.22,.01-.39,.2-.38,.42l.44,8.29c.01,.21,.19,.38,.4,.38Z"/>
      <path class="cls-1" d="M8.25,14.37c.21,0,.39-.17,.4-.38l.44-8.29c.01-.22-.16-.41-.38-.42-.22-.01-.41,.16-.42,.38l-.44,8.29c-.01,.22,.16,.41,.38,.42,0,0,.01,0,.02,0Z"/>
      <path class="cls-1" d="M12.82,2.39h-4.17v-.72c0-.77-.7-1.4-1.57-1.4h-.67c-.86,0-1.57,.63-1.57,1.4v.72H.67c-.22,0-.4,.18-.4,.4s.18,.4,.4,.4H12.82c.22,0,.4-.18,.4-.4s-.18-.4-.4-.4Zm-7.17-.72c0-.32,.35-.59,.76-.59h.67c.41,0,.76,.27,.76,.59v.72h-2.19v-.72Z"/>
    </g>
  </g>
</svg>